<svg width="40" height="36" viewBox="0 0 40 36" fill="none" xmlns="http://www.w3.org/2000/svg">
<path d="M1.5 26.25L12.3798 15.3334C13.1826 14.528 14.4841 14.528 15.2868 15.3334L24.1111 24.1875M24.1111 24.1875L21.0278 27.2812M24.1111 24.1875L27.7965 20.4896C28.5992 19.6842 29.9008 19.6842 30.7035 20.4896L38.5 28.3125M5.61111 34.5H34.3889C36.6595 34.5 38.5 32.6532 38.5 30.375V5.625C38.5 3.34682 36.6595 1.5 34.3889 1.5H5.61111C3.34061 1.5 1.5 3.34682 1.5 5.625V30.375C1.5 32.6532 3.34061 34.5 5.61111 34.5ZM33.3611 10.7812C33.3611 13.0594 31.5206 14.9062 29.25 14.9062C26.9794 14.9062 25.1389 13.0594 25.1389 10.7812C25.1389 8.50307 26.9794 6.65625 29.25 6.65625C31.5206 6.65625 33.3611 8.50307 33.3611 10.7812Z" stroke="black" stroke-width="3" stroke-linecap="round"/>
</svg>
